<?xml version="1.0" encoding="utf-8"?>
<!-- Generator: Adobe Illustrator 23.0.3, SVG Export Plug-In . SVG Version: 6.00 Build 0)  -->
<svg version="1.1" id="Layer_1" xmlns="http://www.w3.org/2000/svg" xmlns:xlink="http://www.w3.org/1999/xlink" x="0px" y="0px"
	 viewBox="0 0 1080 1080" style="enable-background:new 0 0 1080 1080;" xml:space="preserve">
<style type="text/css">
	.st0{fill:#282C34;}
	.st1{fill:none;}
	.st2{font-family:'Lato-Black';}
	.st3{font-size:161px;}
</style>
<g>
	<path class="st0" d="M554.6,534.1v-32.3h-33v32.3c-52,4.3-91.8,27.4-91.8,39c0,12.8,48.5,23.2,108.3,23.2
		c59.8,0,108.3-10.4,108.3-23.2C646.5,561.4,606.6,538.3,554.6,534.1z"/>
	<path class="st0" d="M385.3,215.7c1.5,75.1,57.8,140.1,136.3,148.9v137.2h33V364.6c79.7-9.1,136.5-75.9,136.5-152.1
		c0-28.8-8-64.6-21.9-99.3c-2.9-7.4-10-12.2-18-12.2H425c-8,0-15.1,4.8-18,12.2C394.5,144.6,384.8,181.5,385.3,215.7L385.3,215.7z
		 M434.4,134h207.5c10.4,28.3,16.2,56.5,16.2,78.5c0,5.4-0.5,10.6-1.2,15.8c-10.3-2.6-21-2.9-32.5,1.2c-30,10.7-49.4,17.5-79.9,5.5
		c-30.3-11.9-49.5-66-85.9-61.8c-14.4,1.6-26.8,6.4-38,13C423.2,169.8,427.8,152,434.4,134z"/>
</g>
<rect x="1.6" y="651.7" class="st1" width="1076.4" height="327.3"/>
<text transform="matrix(1 0 0 1 340.1406 772.2549)"><tspan x="0" y="0" class="st0 st2 st3">Wine</tspan><tspan x="-336.3" y="122" class="st0 st2 st3">Recommender</tspan></text>
</svg>
