<svg version="1" xmlns="http://www.w3.org/2000/svg" width="1365.333" height="1365.333" viewBox="0 0 1024.000000 1024.000000"><path d="M261.5 1.4c-14.4 4.6-21.6 12.2-29 31.1-8.3 20.9-23.6 68.9-27 84.5-.2.8-.8 3.5-1.4 6-.5 2.5-1.2 5.6-1.4 7-.3 1.4-1 4.3-1.5 6.5-.6 2.2-1.3 5.3-1.5 7-.3 1.6-1.4 8.2-2.6 14.5-2 11.5-2.7 16.1-3.7 25.5-.3 2.7-.7 6.5-1 8.3-2.3 17.2-2.2 59.3.1 75.7.3 2.2.8 5.6 1.1 7.5.3 1.9.7 5.3 1 7.5 2.2 17 12.9 53.8 20.9 72 3.3 7.5 12.7 26.6 16 32.5 3.9 7 18.8 29.6 22.7 34.4 1.3 1.6 5.1 6.3 8.4 10.5 34.4 43 85.2 78.3 140 97.4 12.2 4.2 37.2 10.9 45.4 12.1 1.9.3 4.6.8 6 1.1 1.4.3 4 .7 5.9 1 9.1 1.2 11.6 1.7 12.1 2.5.3.4.5 12.7.4 27.3v26.5h32.5c17.9 0 33.3-.2 34.3-.4 1.4-.4 1.6-3.2 1.6-27 0-14.5.1-26.6.3-26.9.2-.2 2.4-.6 4.9-1 2.5-.3 6.1-.9 8-1.1 6.4-1 27.2-5.4 32.4-6.9 2.8-.9 5.1-1.5 5.1-1.4 0 .5 17-5.1 27-8.8 80.6-30.4 145.6-93.1 180-173.8 6.8-15.9 15.4-44.7 18.9-63 2-10.7 2.3-12.4 4.6-32.5.8-7.5.6-52.4-.4-59-.3-1.9-.8-6-1.1-9-.3-3-.8-7.1-1-9-.5-4.3-3.3-22.6-4-26-1-5-2.7-13.6-3.2-16.4-3.8-21.6-19.2-72.8-30.9-103-7.6-19.5-12.4-25.4-25.2-31.4L750.5.5 508 .3C314.7.2 264.7.4 261.5 1.4zM724 76.9c2.8 7.5 10.2 31.5 14.5 46.6 1.6 5.6 5.5 22 6.9 29 1.4 6.9 3.7 19.6 4.1 23 .4 2.2.8 4.7 1 5.5.2.8.7 4.2 1.1 7.5.3 3.3.8 6.9 1 8 .6 3.2 1.7 23.5 1.8 32 .1 11.8-1.6 33.2-2.7 34.1-.1.1-4.7-.7-10.2-1.6-10.9-2-31.9-2-40.5 0-2.5.6-5.5 1.2-6.7 1.5-1.2.3-9.9 3.2-19.5 6.6-23.6 8.2-37.5 12.6-48.8 15.3-16.2 4-25.8 5.1-42.5 5.1-21.9 0-32.5-1.9-55.3-9.7-15.4-5.2-25.7-11.1-38.6-22.2-10.9-9.3-18.4-17.1-39.6-41.1-26.3-29.8-37.7-41-52.4-51.3-9.6-6.8-22.6-13-31.1-14.6-1.6-.4-4.1-.9-5.5-1.2-1.4-.3-5.9-.5-10-.5-8.2 0-14.6.7-24 2.6-1.4.2-4 .7-5.8 1-7.9 1.3-32.1 10.2-43.8 16.1-7 3.5-12.9 6.4-13.1 6.4-.2 0-.1-1.4.2-3 .3-1.7.7-4.5 1-6.3.3-1.7.8-3.9 1-4.7.2-.8.6-3.1.9-5 .3-1.9 1.2-6.7 2.1-10.5.9-3.9 1.8-7.7 2-8.5l2-8 2-8c1-4.3 7.9-27 11.5-37.5 2.3-6.6 4.4-12.7 4.7-13.6.4-1.4 19.9-1.6 214.8-1.6h214.4l3.1 8.6zM500.3 613.5c-6.8 2.9-9.4 13.3-4.7 18.7 6 6.7 18 5.4 22-2.3 2.7-5.3 1-12-3.8-15.1-3.5-2.3-9.8-2.9-13.5-1.3zM339 616.3c0 .9 8.3 26.8 20.9 65.7 2.6 8 5.8 18 7.2 22.3l2.4 7.7 10.9-.2 10.8-.3 10.2-31.3c5.5-17.1 10.3-31.2 10.6-31.2.4 0 7.7 21.4 8.7 25.5.1.5 2.8 9.1 6.1 19l5.8 18H454.3l3.3-10c1.8-5.5 6.9-21.5 11.4-35.5s10-30.9 12.1-37.4c2.1-6.6 3.9-12.3 3.9-12.6 0-.3-4.7-.6-10.4-.5-7.7.1-11 .5-12.8 1.7-2.1 1.4-3.3 4.9-8.7 25-3.4 12.8-6.6 24.4-7.2 25.8-1 2.8-1.7 6.5-1.8 9.4-.2 3.7-2 .2-5-9.4-1.6-5.2-5.5-17.4-8.6-27-3.1-9.6-5.8-18.4-6-19.5-.3-1.1-1.5-2.9-2.9-4.1-1.9-1.7-3.5-2.1-8.7-1.9-8.3.2-10.4 1.4-12.3 7.2-3.9 12.5-16.8 53.1-17.5 55.2-.5 1.7-2.9-5.9-8.9-28-5.7-21.1-8.8-31-10.2-32.4-1.8-1.7-3.4-2-13.5-2-6.3 0-11.5.3-11.5.8zM563 643.6c-1.9.8-4.8 2.6-6.6 3.9l-3.1 2.4-1.6-3.5-1.7-3.4h-16.8v69.1l10.6-.3 10.7-.3.2-23c.1-12.7.2-23.7.2-24.6.1-1.8 7.1-6 10.8-6.4 4.3-.4 8 1.4 9.6 4.8 1.3 2.5 1.6 7.6 1.6 26.2l-.1 23 10.6.3c8.1.2 10.6 0 10.7-1 .6-11.2-.1-48.2-1-51.4-1.5-5.6-4.8-10.3-9.9-13.9-3.9-2.7-5.2-3-12.5-3.2-5.4-.1-9.4.3-11.7 1.3zM629.8 644.4c-11 4.5-17.6 12.1-20.1 23.4-3.7 15.8 2.2 32.1 14.3 39.7 8.6 5.3 21.2 6.9 33.5 4 6.3-1.4 14.8-5.8 17.4-8.8 1.3-1.7-6.3-10.7-9-10.7-1.1 0-4.6 1.2-7.7 2.6-7.2 3.3-15.3 3.6-20.1.8-3.3-1.9-6.2-6.5-7.5-11.7l-.6-2.7h21.9c25 0 24.4.2 24.2-8.2-.2-10.5-4.2-19.2-11.3-24.5-5.9-4.4-9.9-5.6-19.8-5.9-8.1-.3-10.3 0-15.2 2zm22.5 14.4c2.3 2.1 3.7 4.6 4.3 7.8l.4 2.4h-27l1.5-3.7c2-4.8 3.4-6.3 7-7.9 3.8-1.7 11.3-.9 13.8 1.4zM494.9 645.2c0 2.2 0 62.9.1 65.6 0 1 2.5 1.2 10.7 1l10.8-.3V643h-10.7c-10.5 0-10.8.1-10.9 2.2zM806.5 710c-.2.4-.4 7.1-.4 15.1.1 7.9 0 15.2 0 16.1-.1 1.6-.5 1.5-4.4-.6-6.4-3.4-16.1-3.5-23.1-.3-11.8 5.4-18.2 16-19 31.3-.9 16.2 4.8 29.7 15.1 35.5 8 4.6 23.2 2.2 30.5-4.7l2.6-2.6.7 3.1c1 4.7 3.8 6.1 12.2 6.1h7.3v-99.5h-10.6c-5.8 0-10.7.2-10.9.5zm-3.2 45.8c1.9 1.2 2.7 2.5 2.8 4.7.1 3.8.1 24.6 0 26.2-.2 2.5-7.7 6.4-12.5 6.6-8.3.2-11.9-5.9-11.8-20.1.1-16.2 9.9-24.2 21.5-17.4zM58.4 760.1l.1 48.4h11.3c13.3.1 12.1 1.9 12.1-17.5v-15.8c.1-2 .6-2.2 4.6-2 2.7.1 5.2.8 6.2 1.8s5.6 8.3 10.3 16.2c4.7 8 9.4 15.1 10.5 15.9 2.1 1.3 25.2 2.1 26 .9.2-.4-1.5-3.7-3.8-7.3-2.3-3.7-7.1-11.2-10.5-16.7-3.5-5.5-7.9-11.3-9.7-12.9l-3.3-2.9 2.6-1.1c14.6-6.7 20.8-24.6 13.6-39.6-2.3-5-8.1-9.6-15.6-12.4-5.9-2.3-8-2.5-30.4-2.9l-24.2-.4.2 48.3zm45-27.7c7.8 5.9 6.3 18.6-2.6 23.2-1.8.9-6.5 1.8-11 2l-7.8.4-.1-3v-12.5-11.6c.1-2 .5-2.1 9.1-1.6 7.8.3 9.4.8 12.4 3.1zM169.3 740.4c-17.8 5.8-26.8 22.6-22.7 42.4 2.9 14 12.3 23.4 26.3 26.3 6.9 1.4 19 .7 25.6-1.6 4.6-1.6 12.7-6.5 13.9-8.3.3-.5-1-2.6-2.9-4.8-1.9-2.1-3.5-4.2-3.5-4.7 0-1.6-5.9-.6-11 1.9-11.4 5.5-21.4 3.1-25.6-6-1.3-2.8-2.4-5.7-2.4-6.4 0-.9 5-1.2 21.8-1.2 15.6 0 22.1-.3 23-1.2.7-.7 1.2-3.9 1.2-7.5 0-12.1-6.3-22.4-16.6-27.3-6.1-2.9-20.6-3.7-27.1-1.6zm19.2 15c2.4 1.6 5.5 7 5.5 9.6 0 .6-4.9 1-13.4 1h-13.5l1.1-3.3c.6-1.7 1.8-4 2.7-5.1 3.9-4.6 12.4-5.6 17.6-2.2zM244.9 740.3c-17.5 4.9-26.9 21.2-23.7 41.2 1.8 11.7 7.9 20.4 17.6 25.2 5.1 2.5 6.7 2.8 16.2 2.8 9.8 0 11-.2 17.1-3.2 3.5-1.8 7.5-4.3 8.8-5.7l2.3-2.5-3.7-4.5c-4.4-5.4-7.1-5.9-12.7-2-3 2.1-4.9 2.7-9.2 2.6-9.8-.1-13.8-5.3-14.4-18.9-.3-7-.1-9 1.8-12.8 3.8-7.8 12.4-10.2 21.2-5.8 2.6 1.2 5.6 2.3 6.7 2.3 1.1 0 3.7-2.1 6-4.8l4-4.9-2.7-2.4c-5.8-5-12.1-7.2-21.7-7.6-5.3-.1-10.9.3-13.6 1zM313.4 739.9c-5.9 1.5-12.9 5.5-17.1 9.8-13.3 13.8-11.3 41.7 3.9 52.9 7.4 5.6 11.5 6.7 23.8 6.8 10.8.1 11.9-.1 17.5-2.8 12.9-6.3 19.4-17.6 19-33.1-.3-14.3-6.3-24.6-17.9-30.4-6-3.1-7.6-3.4-16.4-3.7-5.3-.2-11.1 0-12.8.5zm18.4 16.7c3.5 2 5.2 5.9 6.1 13.2.7 6.6.7 6.2-.2 12.4-1.2 7.4-6.6 12.6-12.7 12.2-1.4-.1-3.5-.2-4.7-.3-3.7-.2-7.9-4.7-9.4-9.8-2.4-8.7-1.1-20.5 2.9-25.2 4.1-4.9 12.1-6.1 18-2.5zM404 739.6c-3.3 1.2-6.6 2.9-8.9 4.6-3.1 2.3-4.1 2.3-4.1-.2 0-2.9-3.1-4-11.3-4h-7.4v69h21.5l-.1-24.5c0-21.8.2-24.7 1.7-26.4 3.3-3.6 12.3-4.5 15.3-1.5 2.5 2.4 2.9 6.8 2.8 30.1V809h21.4l.3-24.5.3-24.5 2.7-2.7c2.2-2.2 3.6-2.7 7-2.6 4.9.2 7.6 2.5 8.7 7.4.4 1.9.7 13.2.6 25.1V809h21.6l-.3-26.8c-.3-25.1-.4-26.9-2.5-30.7-4.7-8.8-12.1-12.8-23.3-12.4-8.4.3-14.3 2.5-19 7.1l-3.7 3.7-1.1-2.3c-2.1-4.7-7.6-7.8-14.4-8.2-3.5-.2-7-.1-7.8.2zM519.5 741c-2.2 1.1-5 2.7-6.2 3.5-2 1.6-2.2 1.5-3.4-.7-1.8-3.5-2.7-3.8-11-3.8h-7.6l-.1 34.5V809h21.6l-.1-24.5c0-26.6 0-26.6 5.8-29.1 3.1-1.3 7.5-.8 10.9 1.2 2.7 1.6 3.2 6.5 3.1 30.6V809H554l.1-22.8c.1-12.5.2-23.2.3-23.7.7-4.9 3.9-7.5 9.6-8 2.4-.2 4.1.5 6.3 2.5l3.1 2.8.1 24.6V809H595v-24c0-28.1-.6-32.2-6.1-38.4-5.2-5.9-11.4-8-21.3-7.4-8.2.5-13.5 2.7-18.1 7.5l-3.2 3.3-1.1-2.4c-.6-1.3-2.7-3.7-4.8-5.2-4.9-3.8-14.8-4.4-20.9-1.4zM626.4 741.2c-17 6.7-24.8 22.3-20.8 41.4 2 9.9 6.8 17.1 14.5 21.9 13.3 8.5 36.8 6.9 48.7-3.3l3.2-2.7-4.1-4.8c-4.7-5.5-6.2-5.7-13.9-2.1-6.7 3.2-15.2 3.6-19.6 1-3.6-2.1-6.8-7-7.7-11.4l-.6-3.2h21.8c24.8 0 24.3.2 24.3-7.9-.1-12.2-6.4-23.3-15.7-27.6-9.2-4.1-21.4-4.7-30.1-1.3zm18.6 12.9c3.7.9 6.7 4.7 7.6 9.4l.4 2.5h-13.4c-13.4 0-13.4 0-12.8-2.3 1.4-5.6 6.9-10.4 12-10.5 1.5 0 4.3.4 6.2.9zM715.2 740.5c-2.3.7-5.8 2.5-7.7 3.9l-3.4 2.7-.7-2.6c-.9-3.6-3.2-4.5-11.7-4.5h-7.4v69h21.4l.1-23.4c0-12.8.3-24.2.6-25.3 1.2-3.8 11.6-7.1 16.2-5.1 4.5 2 4.8 4 5 28.3.2 12.6.3 23.6.3 24.2.1 1 2.9 1.3 10.6 1.3H749l.1-2.8c0-1.5.1-12.6.1-24.6 0-18.6-.3-22.8-1.8-27.3-4.2-12.4-17.9-18.3-32.2-13.8zM864 740.4c-5.4 1.5-12.5 5.8-16.2 9.9-12.6 13.9-10.5 39.4 4.1 51.9 12.4 10.6 38.9 10.1 51.9-.9l3.4-2.8-4.2-4.8c-2.3-2.6-5-4.7-6.1-4.7-1.1 0-4.6 1.2-7.7 2.6-13.5 6.3-25.5 1.5-27.8-11.2l-.4-2.4h21.8c15.6 0 22.1-.3 23-1.2 1.6-1.6 1.5-11.4-.2-17.1-1.7-5.7-6.3-12.2-10.8-15.2-7.8-5.2-20.6-6.9-30.8-4.1zm17.1 14.3c3.6 1.5 5.7 4.4 6.5 9 .4 2.3.4 2.3-13 2.3h-13.5l1.1-3.3c1.4-4.1 2.6-5.6 6.3-7.9 3.5-2.1 7.6-2.2 12.6-.1zM951.3 740.5c-1.8.7-5.2 3.2-7.6 5.4l-4.4 4.1-.6-3.6c-1-5.8-2-6.4-11.2-6.4h-8.3v69h21.6v-21c0-17.6.3-21.5 1.6-23.5 2.9-4.4 6.5-6 13.2-6 3.5 0 6.8-.5 7.5-1.2.6-.6 1.8-4.5 2.5-8.5 1.1-6.5 1.1-7.4-.4-8.6-2.1-1.6-9.9-1.5-13.9.3zM473 829c-.4.3-.7 15-.7 32.7 0 17.8-.2 32.5-.5 32.8-.7.7-3.3 1.1-11.3 2-3.3.3-7.3.8-9 1.1-1.6.2-4.6.6-6.5.9-17.8 2.1-47.8 9.2-69.7 16.4-48.7 16-87.4 40.2-92.2 57.7-2.9 10.5 9.2 20.7 34.6 29.4 5.1 1.7 10.1 3.3 11 3.5 1 .1 4.7 1.1 8.3 2 3.6.9 7.6 1.9 9 2.1 1.4.3 5.7 1.1 9.5 1.9 5.9 1.2 18.3 3.3 29.5 5 1.4.2 6.8.8 12 1.5 5.2.6 11.3 1.3 13.5 1.6 2.2.2 7.6.7 12 1 4.4.3 9.4.7 11 .9 18.1 2.6 132.3 2.6 146.4 0 .9-.1 6.1-.6 11.6-1s10.6-.8 11.5-1c.8-.1 4.6-.6 8.3-1 3.7-.3 7.7-.8 8.7-1 1-.2 4.3-.6 7.2-.9 2.9-.4 6.4-.8 7.8-1.1 1.4-.2 5.2-.9 8.5-1.4 3.3-.6 7.6-1.3 9.5-1.6 11.4-1.8 41.9-9.8 49.3-13 1.8-.7 5-2.1 7.2-3.1 6.9-2.9 15.9-9.4 18.4-13.1 4.8-7.4 2.6-14.5-7.5-24.7-16.4-16.5-52.1-34.7-91.9-46.8-26.6-8-55.6-13.6-84.7-16.3-1-.1-2.1-.4-2.4-.8-.4-.4-.7-15.3-.6-33.2 0-17.9-.3-32.6-.6-32.6-2.2-.4-66.5-.3-67.2.1z"/></svg>